# Blender 5.0.1
# www.blender.org
o Sphere
v 0.000000 2.000000 0.000000
v 0.000000 1.831470 -0.277785
v 0.000000 1.555570 -0.415735
v 0.000000 1.195090 -0.490393
v 0.000000 1.000000 -0.500000
v 0.038060 1.980785 -0.095671
v 0.074658 1.923880 -0.187665
v 0.108386 1.831470 -0.272448
v 0.137950 1.707107 -0.346760
v 0.162212 1.555570 -0.407747
v 0.180240 1.382684 -0.453064
v 0.191342 1.195090 -0.480970
v 0.195090 1.000000 -0.490393
v 0.074658 1.980785 -0.090120
v 0.146447 1.923880 -0.176777
v 0.212608 1.831470 -0.256640
v 0.270598 1.707107 -0.326641
v 0.318190 1.555570 -0.384089
v 0.353553 1.382684 -0.426777
v 0.375330 1.195090 -0.453064
v 0.382683 1.000000 -0.461940
v 0.108386 1.980785 -0.081106
v 0.212608 1.923880 -0.159095
v 0.308658 1.831470 -0.230970
v 0.392847 1.707107 -0.293969
v 0.461940 1.555570 -0.345671
v 0.513280 1.382684 -0.384089
v 0.544895 1.195090 -0.407747
v 0.555570 1.000000 -0.415735
v 0.137950 1.980785 -0.068975
v 0.270598 1.923880 -0.135299
v 0.392847 1.831470 -0.196424
v 0.500000 1.707107 -0.250000
v 0.587938 1.555570 -0.293969
v 0.653281 1.382684 -0.326641
v 0.693520 1.195090 -0.346760
v 0.707107 1.000000 -0.353553
v 0.162212 1.980785 -0.054193
v 0.318190 1.923880 -0.106304
v 0.461940 1.831470 -0.154329
v 0.587938 1.707107 -0.196424
v 0.691342 1.555570 -0.230970
v 0.768178 1.382684 -0.256640
v 0.815493 1.195090 -0.272447
v 0.831470 1.000000 -0.277785
v 0.180240 1.980785 -0.037329
v 0.353553 1.923880 -0.073223
v 0.513280 1.831470 -0.106304
v 0.653281 1.707107 -0.135299
v 0.768178 1.555570 -0.159095
v 0.853553 1.382684 -0.176777
v 0.906127 1.195090 -0.187665
v 0.923879 1.000000 -0.191342
v 0.191342 1.980785 -0.019030
v 0.375330 1.923880 -0.037329
v 0.544895 1.831470 -0.054193
v 0.693520 1.707107 -0.068975
v 0.815493 1.555570 -0.081106
v 0.906127 1.382684 -0.090120
v 0.961940 1.195090 -0.095671
v 0.980785 1.000000 -0.097545
v 0.195090 1.980785 0.000000
v 0.382683 1.923880 0.000000
v 0.555570 1.831470 0.000000
v 0.707107 1.707107 -0.000000
v 0.831469 1.555570 0.000000
v 0.923879 1.382684 -0.000000
v 0.980785 1.195090 0.000000
v 1.000000 1.000000 0.000000
v 0.191342 1.980785 0.019030
v 0.375330 1.923880 0.037329
v 0.544895 1.831470 0.054193
v 0.693520 1.707107 0.068975
v 0.815493 1.555570 0.081106
v 0.906127 1.382684 0.090120
v 0.961940 1.195090 0.095671
v 0.980785 1.000000 0.097545
v 0.180240 1.980785 0.037329
v 0.353553 1.923880 0.073223
v 0.513280 1.831470 0.106304
v 0.653281 1.707107 0.135299
v 0.768178 1.555570 0.159095
v 0.853553 1.382684 0.176777
v 0.906127 1.195090 0.187665
v 0.923879 1.000000 0.191342
v 0.162212 1.980785 0.054193
v 0.318190 1.923880 0.106304
v 0.461940 1.831470 0.154329
v 0.587938 1.707107 0.196424
v 0.691341 1.555570 0.230970
v 0.768178 1.382684 0.256640
v 0.815493 1.195090 0.272448
v 0.831469 1.000000 0.277785
v 0.137950 1.980785 0.068975
v 0.270598 1.923880 0.135299
v 0.392847 1.831470 0.196424
v 0.500000 1.707107 0.250000
v 0.587938 1.555570 0.293969
v 0.653281 1.382684 0.326641
v 0.693520 1.195090 0.346760
v 0.707106 1.000000 0.353553
v 0.108386 1.980785 0.081106
v 0.212607 1.923880 0.159095
v 0.308658 1.831470 0.230970
v 0.392847 1.707107 0.293969
v 0.461940 1.555570 0.345671
v 0.513280 1.382684 0.384089
v 0.544895 1.195090 0.407746
v 0.555570 1.000000 0.415735
v 0.074658 1.980785 0.090120
v 0.146447 1.923880 0.176777
v 0.212607 1.831470 0.256640
v 0.270598 1.707107 0.326641
v 0.318189 1.555570 0.384089
v 0.353553 1.382684 0.426777
v 0.375330 1.195090 0.453064
v 0.382683 1.000000 0.461940
v 0.038060 1.980785 0.095671
v 0.074658 1.923880 0.187665
v 0.108386 1.831470 0.272447
v 0.137950 1.707107 0.346760
v 0.162212 1.555570 0.407746
v 0.180240 1.382684 0.453064
v 0.191342 1.195090 0.480970
v 0.195090 1.000000 0.490392
v -0.000000 1.980785 0.097545
v -0.000000 1.923880 0.191342
v -0.000000 1.831470 0.277785
v -0.000000 1.707107 0.353553
v -0.000000 1.555570 0.415735
v 0.000000 1.382684 0.461940
v -0.000000 1.195090 0.490392
v -0.000000 1.000000 0.500000
v -0.038060 1.980785 0.095671
v -0.074658 1.923880 0.187665
v -0.108386 1.831470 0.272447
v -0.137950 1.707107 0.346760
v -0.162212 1.555570 0.407746
v -0.180240 1.382684 0.453064
v -0.191342 1.195090 0.480970
v -0.195091 1.000000 0.490392
v -0.074658 1.980785 0.090120
v -0.146447 1.923880 0.176777
v -0.212608 1.831470 0.256640
v -0.270598 1.707107 0.326641
v -0.318190 1.555570 0.384089
v -0.353553 1.382684 0.426777
v -0.375330 1.195090 0.453064
v -0.382683 1.000000 0.461939
v -0.108386 1.980785 0.081106
v -0.212608 1.923880 0.159095
v -0.308658 1.831470 0.230970
v -0.392847 1.707107 0.293969
v -0.461940 1.555570 0.345671
v -0.513280 1.382684 0.384089
v -0.544895 1.195090 0.407746
v -0.555570 1.000000 0.415734
v -0.137950 1.980785 0.068975
v -0.270598 1.923880 0.135299
v -0.392847 1.831470 0.196424
v -0.500000 1.707107 0.250000
v -0.587938 1.555570 0.293969
v -0.653281 1.382684 0.326641
v -0.693520 1.195090 0.346760
v -0.707106 1.000000 0.353553
v -0.162212 1.980785 0.054193
v -0.318190 1.923880 0.106304
v -0.461940 1.831470 0.154329
v -0.587938 1.707107 0.196424
v -0.691341 1.555570 0.230970
v -0.768177 1.382684 0.256640
v -0.815493 1.195090 0.272447
v -0.831469 1.000000 0.277785
v -0.180240 1.980785 0.037329
v -0.353553 1.923880 0.073223
v -0.513280 1.831470 0.106304
v -0.653281 1.707107 0.135299
v -0.768177 1.555570 0.159095
v -0.853553 1.382684 0.176777
v -0.906127 1.195090 0.187665
v -0.923879 1.000000 0.191341
v -0.191342 1.980785 0.019030
v -0.375330 1.923880 0.037329
v -0.544895 1.831470 0.054193
v -0.693520 1.707107 0.068975
v -0.815493 1.555570 0.081106
v -0.906127 1.382684 0.090120
v -0.961939 1.195090 0.095671
v -0.980784 1.000000 0.097545
v -0.195090 1.980785 -0.000000
v -0.382683 1.923880 -0.000000
v -0.555570 1.831470 -0.000000
v -0.707107 1.707107 -0.000000
v -0.831469 1.555570 -0.000000
v -0.923879 1.382684 -0.000000
v -0.980785 1.195090 -0.000000
v -0.999999 1.000000 -0.000000
v -0.191342 1.980785 -0.019030
v -0.375330 1.923880 -0.037329
v -0.544895 1.831470 -0.054193
v -0.693520 1.707107 -0.068975
v -0.815493 1.555570 -0.081106
v -0.906127 1.382684 -0.090120
v -0.961939 1.195090 -0.095671
v -0.980784 1.000000 -0.097545
v -0.180240 1.980785 -0.037329
v -0.353553 1.923880 -0.073223
v -0.513279 1.831470 -0.106304
v -0.653281 1.707107 -0.135299
v -0.768177 1.555570 -0.159095
v -0.853553 1.382684 -0.176777
v -0.906127 1.195090 -0.187665
v -0.923878 1.000000 -0.191342
v -0.162212 1.980785 -0.054193
v -0.318189 1.923880 -0.106304
v -0.461939 1.831470 -0.154329
v -0.587938 1.707107 -0.196424
v -0.691341 1.555570 -0.230970
v -0.768177 1.382684 -0.256640
v -0.815493 1.195090 -0.272448
v -0.831468 1.000000 -0.277785
v -0.137950 1.980785 -0.068975
v -0.270598 1.923880 -0.135299
v -0.392847 1.831470 -0.196424
v -0.500000 1.707107 -0.250000
v -0.587937 1.555570 -0.293969
v -0.653281 1.382684 -0.326641
v -0.693519 1.195090 -0.346760
v -0.707106 1.000000 -0.353553
v -0.108386 1.980785 -0.081106
v -0.212607 1.923880 -0.159095
v -0.308658 1.831470 -0.230970
v -0.392847 1.707107 -0.293969
v -0.461939 1.555570 -0.345671
v -0.513280 1.382684 -0.384089
v -0.544895 1.195090 -0.407746
v -0.555569 1.000000 -0.415734
v -0.074658 1.980785 -0.090120
v -0.146446 1.923880 -0.176777
v -0.212607 1.831470 -0.256640
v -0.270598 1.707107 -0.326641
v -0.318189 1.555570 -0.384089
v -0.353553 1.382684 -0.426776
v -0.375330 1.195090 -0.453063
v -0.382683 1.000000 -0.461939
v -0.038060 1.980785 -0.095671
v -0.074658 1.923880 -0.187665
v -0.108386 1.831470 -0.272447
v -0.137950 1.707107 -0.346760
v -0.162211 1.555570 -0.407746
v -0.180240 1.382684 -0.453063
v -0.191341 1.195090 -0.480970
v -0.195090 1.000000 -0.490392
v 0.000000 1.980785 -0.097545
v 0.000000 1.923880 -0.191342
v 0.000000 1.707107 -0.353553
v 0.000000 1.382684 -0.461940
v 0.000000 0.997259 -0.499865
v 0.195038 0.997259 -0.490260
v 0.382580 0.997259 -0.461815
v 0.555420 0.997259 -0.415623
v 0.706916 0.997259 -0.353458
v 0.831245 0.997259 -0.277710
v 0.923630 0.997259 -0.191290
v 0.980520 0.997259 -0.097519
v 0.999730 0.997259 0.000000
v 0.980520 0.997259 0.097519
v 0.923630 0.997259 0.191290
v 0.831245 0.997259 0.277710
v 0.706915 0.997259 0.353458
v 0.555420 0.997259 0.415622
v 0.382580 0.997259 0.461815
v 0.195037 0.997259 0.490260
v -0.000000 0.997259 0.499865
v -0.195038 0.997259 0.490260
v -0.382580 0.997259 0.461815
v -0.555420 0.997259 0.415622
v -0.706916 0.997259 0.353458
v -0.831245 0.997259 0.277710
v -0.923629 0.997259 0.191290
v -0.980520 0.997259 0.097519
v -0.999729 0.997259 -0.000000
v -0.980519 0.997259 -0.097519
v -0.923629 0.997259 -0.191290
v -0.831244 0.997259 -0.277710
v -0.706915 0.997259 -0.353458
v -0.555419 0.997259 -0.415622
v -0.382579 0.997259 -0.461815
v -0.195037 0.997259 -0.490260
v 0.000000 1.000000 -0.500000
v -0.195090 1.000000 -0.490393
v -0.382683 1.000000 -0.461940
v -0.555570 1.000000 -0.415735
v -0.707107 1.000000 -0.353553
v -0.831470 1.000000 -0.277785
v -0.923879 1.000000 -0.191342
v -0.980785 1.000000 -0.097545
v -1.000000 1.000000 0.000000
v -0.980785 1.000000 0.097545
v -0.923879 1.000000 0.191342
v -0.831470 1.000000 0.277785
v -0.707107 1.000000 0.353553
v -0.555570 1.000000 0.415735
v -0.382683 1.000000 0.461940
v -0.195090 1.000000 0.490393
v 0.000000 1.000000 0.500000
v 0.195090 1.000000 0.490393
v 0.382684 1.000000 0.461940
v 0.555570 1.000000 0.415735
v 0.707107 1.000000 0.353553
v 0.831470 1.000000 0.277785
v 0.923880 1.000000 0.191342
v 0.980785 1.000000 0.097545
v 1.000000 1.000000 0.000000
v 0.980785 1.000000 -0.097545
v 0.923880 1.000000 -0.191342
v 0.831470 1.000000 -0.277785
v 0.707107 1.000000 -0.353553
v 0.555570 1.000000 -0.415735
v 0.382684 1.000000 -0.461940
v 0.195090 1.000000 -0.490393
v -0.000000 -1.000000 0.000000
vn 0.0491 0.0491 -0.9976
vn 0.0095 0.9811 -0.1933
vn 0.0491 -0.0491 -0.9976
vn 0.0255 0.8547 -0.5185
vn 0.0359 0.6827 -0.7298
vn 0.0420 0.5198 -0.8532
vn 0.0455 0.3792 -0.9242
vn 0.0475 0.2579 -0.9650
vn 0.0486 0.1498 -0.9875
vn 0.1482 0.1541 -0.9769
vn 0.1498 0.0506 -0.9874
vn 0.0282 0.9821 -0.1860
vn 0.1498 -0.0506 -0.9874
vn 0.0762 0.8613 -0.5024
vn 0.1081 0.6932 -0.7126
vn 0.1271 0.5309 -0.8379
vn 0.1382 0.3887 -0.9109
vn 0.1446 0.2650 -0.9534
vn 0.1808 0.7140 -0.6764
vn 0.2151 0.5533 -0.8048
vn 0.2357 0.4083 -0.8819
vn 0.2479 0.2797 -0.9275
vn 0.2547 0.1631 -0.9532
vn 0.2578 0.0536 -0.9647
vn 0.0459 0.9841 -0.1718
vn 0.2578 -0.0536 -0.9647
vn 0.1256 0.8738 -0.4698
vn 0.3736 0.1778 -0.9104
vn 0.3790 0.0586 -0.9236
vn 0.0619 0.9866 -0.1510
vn 0.3790 -0.0586 -0.9236
vn 0.1723 0.8911 -0.4199
vn 0.2536 0.7442 -0.6180
vn 0.3073 0.5873 -0.7488
vn 0.3411 0.4391 -0.8312
vn 0.3617 0.3033 -0.8816
vn 0.4031 0.6323 -0.6616
vn 0.4559 0.4817 -0.7484
vn 0.4898 0.3371 -0.8040
vn 0.5099 0.1991 -0.8369
vn 0.5192 0.0658 -0.8521
vn 0.0757 0.9894 -0.1242
vn 0.5192 -0.0658 -0.8521
vn 0.2146 0.9109 -0.3523
vn 0.3245 0.7816 -0.5327
vn 0.6812 0.0757 -0.7282
vn 0.0866 0.9919 -0.0926
vn 0.6812 -0.0757 -0.7282
vn 0.2502 0.9305 -0.2674
vn 0.3893 0.8218 -0.4161
vn 0.4979 0.6846 -0.5323
vn 0.5773 0.5346 -0.6172
vn 0.6316 0.3810 -0.6752
vn 0.6652 0.2277 -0.7111
vn 0.5799 0.7348 -0.3518
vn 0.6906 0.5894 -0.4190
vn 0.7722 0.4292 -0.4685
vn 0.8255 0.2604 -0.5008
vn 0.8517 0.0872 -0.5167
vn 0.0941 0.9939 -0.0571
vn 0.8517 -0.0872 -0.5167
vn 0.2761 0.9464 -0.1675
vn 0.4405 0.8571 -0.2672
vn 0.9766 0.0962 -0.1924
vn 0.0980 0.9950 -0.0193
vn 0.9766 -0.0962 -0.1924
vn 0.2898 0.9554 -0.0571
vn 0.4694 0.8781 -0.0925
vn 0.6295 0.7670 -0.1240
vn 0.7642 0.6272 -0.1505
vn 0.8689 0.4644 -0.1712
vn 0.9404 0.2853 -0.1852
vn 0.7642 0.6272 0.1505
vn 0.8689 0.4644 0.1712
vn 0.9404 0.2853 0.1852
vn 0.9766 0.0962 0.1924
vn 0.0980 0.9950 0.0193
vn 0.9766 -0.0962 0.1924
vn 0.2898 0.9554 0.0571
vn 0.4694 0.8781 0.0925
vn 0.6295 0.7670 0.1240
vn 0.8517 -0.0872 0.5167
vn 0.2761 0.9464 0.1675
vn 0.4405 0.8571 0.2672
vn 0.5799 0.7348 0.3518
vn 0.6906 0.5894 0.4190
vn 0.7722 0.4292 0.4685
vn 0.8255 0.2604 0.5008
vn 0.8517 0.0872 0.5167
vn 0.0941 0.9939 0.0571
vn 0.6316 0.3810 0.6752
vn 0.6652 0.2277 0.7111
vn 0.6812 0.0757 0.7282
vn 0.0866 0.9919 0.0926
vn 0.6812 -0.0757 0.7282
vn 0.2502 0.9305 0.2674
vn 0.3893 0.8218 0.4161
vn 0.4979 0.6846 0.5323
vn 0.5773 0.5346 0.6172
vn 0.2146 0.9109 0.3523
vn 0.3245 0.7816 0.5327
vn 0.4031 0.6323 0.6616
vn 0.4559 0.4817 0.7484
vn 0.4898 0.3371 0.8040
vn 0.5099 0.1991 0.8369
vn 0.5192 0.0658 0.8521
vn 0.0757 0.9894 0.1242
vn 0.5192 -0.0658 0.8521
vn 0.3617 0.3033 0.8816
vn 0.3736 0.1778 0.9104
vn 0.3790 0.0586 0.9236
vn 0.0619 0.9866 0.1510
vn 0.3790 -0.0586 0.9236
vn 0.1723 0.8911 0.4199
vn 0.2536 0.7442 0.6180
vn 0.3073 0.5873 0.7488
vn 0.3411 0.4391 0.8312
vn 0.1808 0.7140 0.6764
vn 0.2151 0.5533 0.8048
vn 0.2357 0.4083 0.8819
vn 0.2479 0.2797 0.9275
vn 0.2547 0.1631 0.9532
vn 0.2578 0.0536 0.9647
vn 0.0459 0.9841 0.1718
vn 0.2578 -0.0536 0.9647
vn 0.1256 0.8738 0.4698
vn 0.1482 0.1541 0.9769
vn 0.1498 0.0506 0.9874
vn 0.0282 0.9821 0.1860
vn 0.1498 -0.0506 0.9874
vn 0.0762 0.8613 0.5024
vn 0.1081 0.6932 0.7126
vn 0.1271 0.5309 0.8379
vn 0.1382 0.3887 0.9109
vn 0.1446 0.2650 0.9534
vn 0.0359 0.6827 0.7298
vn 0.0420 0.5198 0.8532
vn 0.0455 0.3792 0.9242
vn 0.0475 0.2579 0.9650
vn 0.0486 0.1498 0.9875
vn 0.0491 0.0491 0.9976
vn 0.0095 0.9811 0.1933
vn 0.0491 -0.0491 0.9976
vn 0.0255 0.8547 0.5185
vn -0.0486 0.1498 0.9875
vn -0.0491 0.0491 0.9976
vn -0.0095 0.9811 0.1933
vn -0.0491 -0.0491 0.9976
vn -0.0255 0.8547 0.5185
vn -0.0359 0.6827 0.7298
vn -0.0420 0.5198 0.8532
vn -0.0455 0.3792 0.9242
vn -0.0475 0.2579 0.9650
vn -0.1271 0.5309 0.8379
vn -0.1382 0.3887 0.9109
vn -0.1446 0.2650 0.9534
vn -0.1482 0.1541 0.9769
vn -0.1498 0.0506 0.9874
vn -0.0282 0.9821 0.1860
vn -0.1498 -0.0506 0.9874
vn -0.0762 0.8613 0.5024
vn -0.1081 0.6932 0.7126
vn -0.2578 0.0536 0.9647
vn -0.0459 0.9841 0.1718
vn -0.2578 -0.0536 0.9647
vn -0.1256 0.8738 0.4698
vn -0.1808 0.7140 0.6764
vn -0.2151 0.5533 0.8048
vn -0.2357 0.4083 0.8819
vn -0.2479 0.2797 0.9275
vn -0.2547 0.1631 0.9532
vn -0.3411 0.4391 0.8312
vn -0.3617 0.3033 0.8816
vn -0.3736 0.1778 0.9104
vn -0.3790 0.0586 0.9236
vn -0.0619 0.9866 0.1510
vn -0.3790 -0.0585 0.9236
vn -0.1723 0.8911 0.4199
vn -0.2536 0.7442 0.6180
vn -0.3073 0.5873 0.7488
vn -0.0757 0.9894 0.1242
vn -0.5192 -0.0658 0.8521
vn -0.2146 0.9109 0.3523
vn -0.3245 0.7816 0.5327
vn -0.4031 0.6323 0.6616
vn -0.4559 0.4817 0.7484
vn -0.4898 0.3371 0.8040
vn -0.5099 0.1991 0.8369
vn -0.5192 0.0658 0.8521
vn -0.5773 0.5346 0.6172
vn -0.6316 0.3810 0.6752
vn -0.6652 0.2277 0.7111
vn -0.6812 0.0757 0.7282
vn -0.0866 0.9919 0.0926
vn -0.6812 -0.0757 0.7282
vn -0.2502 0.9305 0.2674
vn -0.3893 0.8218 0.4161
vn -0.4979 0.6846 0.5323
vn -0.8517 -0.0872 0.5167
vn -0.2761 0.9464 0.1675
vn -0.4405 0.8571 0.2672
vn -0.5799 0.7348 0.3518
vn -0.6906 0.5894 0.4190
vn -0.7722 0.4292 0.4685
vn -0.8255 0.2604 0.5008
vn -0.8517 0.0872 0.5167
vn -0.0941 0.9939 0.0571
vn -0.8689 0.4644 0.1712
vn -0.9404 0.2853 0.1852
vn -0.9766 0.0962 0.1924
vn -0.0980 0.9950 0.0193
vn -0.9766 -0.0962 0.1924
vn -0.2898 0.9554 0.0571
vn -0.4694 0.8781 0.0925
vn -0.6295 0.7670 0.1240
vn -0.7642 0.6272 0.1505
vn -0.2898 0.9554 -0.0571
vn -0.4694 0.8781 -0.0925
vn -0.6295 0.7670 -0.1240
vn -0.7642 0.6272 -0.1505
vn -0.8689 0.4644 -0.1712
vn -0.9404 0.2853 -0.1852
vn -0.9766 0.0962 -0.1924
vn -0.0980 0.9950 -0.0193
vn -0.9766 -0.0962 -0.1924
vn -0.7722 0.4292 -0.4685
vn -0.8255 0.2604 -0.5008
vn -0.8517 0.0872 -0.5167
vn -0.0941 0.9939 -0.0571
vn -0.8517 -0.0872 -0.5167
vn -0.2761 0.9464 -0.1675
vn -0.4405 0.8571 -0.2672
vn -0.5799 0.7348 -0.3518
vn -0.6906 0.5894 -0.4190
vn -0.3893 0.8218 -0.4161
vn -0.4979 0.6846 -0.5323
vn -0.5773 0.5346 -0.6172
vn -0.6316 0.3810 -0.6752
vn -0.6652 0.2277 -0.7111
vn -0.6812 0.0757 -0.7282
vn -0.0866 0.9919 -0.0926
vn -0.6812 -0.0757 -0.7282
vn -0.2502 0.9305 -0.2674
vn -0.5099 0.1991 -0.8369
vn -0.5192 0.0658 -0.8521
vn -0.0757 0.9894 -0.1242
vn -0.5192 -0.0658 -0.8521
vn -0.2146 0.9109 -0.3523
vn -0.3245 0.7816 -0.5327
vn -0.4031 0.6323 -0.6616
vn -0.4559 0.4817 -0.7484
vn -0.4898 0.3371 -0.8040
vn -0.3073 0.5873 -0.7488
vn -0.3411 0.4391 -0.8312
vn -0.3617 0.3033 -0.8816
vn -0.3736 0.1778 -0.9104
vn -0.3790 0.0586 -0.9236
vn -0.0619 0.9866 -0.1510
vn -0.3790 -0.0586 -0.9236
vn -0.1723 0.8911 -0.4199
vn -0.2536 0.7442 -0.6180
vn -0.2578 0.0536 -0.9647
vn -0.0459 0.9841 -0.1718
vn -0.2578 -0.0536 -0.9647
vn -0.1256 0.8738 -0.4698
vn -0.1808 0.7140 -0.6764
vn -0.2151 0.5533 -0.8048
vn -0.2357 0.4083 -0.8819
vn -0.2479 0.2797 -0.9275
vn -0.2547 0.1631 -0.9532
vn -0.1271 0.5309 -0.8379
vn -0.1382 0.3887 -0.9109
vn -0.1446 0.2650 -0.9534
vn -0.1482 0.1541 -0.9769
vn -0.1498 0.0506 -0.9874
vn -0.0282 0.9821 -0.1860
vn -0.1498 -0.0506 -0.9874
vn -0.0762 0.8613 -0.5024
vn -0.1081 0.6932 -0.7126
vn -0.0491 0.0491 -0.9976
vn -0.0095 0.9811 -0.1933
vn -0.0491 -0.0491 -0.9976
vn -0.0255 0.8547 -0.5185
vn -0.0359 0.6827 -0.7298
vn -0.0420 0.5198 -0.8532
vn -0.0455 0.3792 -0.9242
vn -0.0475 0.2579 -0.9650
vn -0.0486 0.1498 -0.9875
vn -0.0477 -0.2423 -0.9690
vn -0.1452 -0.2490 -0.9576
vn -0.2491 -0.2630 -0.9321
vn -0.3638 -0.2854 -0.8867
vn -0.4934 -0.3176 -0.8098
vn -0.6374 -0.3596 -0.6814
vn -0.7812 -0.4062 -0.4740
vn -0.8809 -0.4404 -0.1735
vn -0.8809 -0.4404 0.1735
vn -0.7812 -0.4062 0.4740
vn -0.6374 -0.3596 0.6814
vn -0.4934 -0.3176 0.8098
vn -0.3638 -0.2854 0.8867
vn -0.2491 -0.2630 0.9321
vn -0.1452 -0.2490 0.9576
vn -0.0477 -0.2423 0.9690
vn 0.0477 -0.2423 0.9690
vn 0.1452 -0.2490 0.9576
vn 0.2491 -0.2630 0.9321
vn 0.3638 -0.2854 0.8867
vn 0.4934 -0.3176 0.8098
vn 0.6374 -0.3596 0.6814
vn 0.7812 -0.4062 0.4740
vn 0.8809 -0.4404 0.1735
vn 0.8809 -0.4404 -0.1735
vn 0.7812 -0.4062 -0.4740
vn 0.6374 -0.3596 -0.6814
vn 0.4934 -0.3176 -0.8098
vn 0.3638 -0.2854 -0.8867
vn 0.2491 -0.2630 -0.9321
vn -0.0000 1.0000 -0.0000
vn 0.1452 -0.2490 -0.9576
vn 0.0477 -0.2423 -0.9690
vt 0.750000 0.500000
vt 0.750000 0.562500
vt 0.718750 0.562500
vt 0.718750 0.500000
vt 0.750000 0.937500
vt 0.734375 1.000000
vt 0.718750 0.937500
vt 0.750000 0.499122
vt 0.718750 0.499122
vt 0.750000 0.875000
vt 0.718750 0.875000
vt 0.750000 0.812500
vt 0.718750 0.812500
vt 0.750000 0.750000
vt 0.718750 0.750000
vt 0.750000 0.687500
vt 0.718750 0.687500
vt 0.750000 0.625000
vt 0.718750 0.625000
vt 0.687500 0.625000
vt 0.687500 0.562500
vt 0.687500 0.500000
vt 0.703125 1.000000
vt 0.687500 0.937500
vt 0.687500 0.499122
vt 0.687500 0.875000
vt 0.687500 0.812500
vt 0.687500 0.750000
vt 0.687500 0.687500
vt 0.656250 0.875000
vt 0.656250 0.812500
vt 0.656250 0.750000
vt 0.656250 0.687500
vt 0.656250 0.625000
vt 0.656250 0.562500
vt 0.656250 0.500000
vt 0.671875 1.000000
vt 0.656250 0.937500
vt 0.656250 0.499122
vt 0.625000 0.625000
vt 0.625000 0.562500
vt 0.625000 0.500000
vt 0.640625 1.000000
vt 0.625000 0.937500
vt 0.625000 0.499122
vt 0.625000 0.875000
vt 0.625000 0.812500
vt 0.625000 0.750000
vt 0.625000 0.687500
vt 0.593750 0.812500
vt 0.593750 0.750000
vt 0.593750 0.687500
vt 0.593750 0.625000
vt 0.593750 0.562500
vt 0.593750 0.500000
vt 0.609375 1.000000
vt 0.593750 0.937500
vt 0.593750 0.499122
vt 0.593750 0.875000
vt 0.562500 0.562500
vt 0.562500 0.500000
vt 0.578125 1.000000
vt 0.562500 0.937500
vt 0.562500 0.499122
vt 0.562500 0.875000
vt 0.562500 0.812500
vt 0.562500 0.750000
vt 0.562500 0.687500
vt 0.562500 0.625000
vt 0.531250 0.812500
vt 0.531250 0.750000
vt 0.531250 0.687500
vt 0.531250 0.625000
vt 0.531250 0.562500
vt 0.531250 0.500000
vt 0.546875 1.000000
vt 0.531250 0.937500
vt 0.531250 0.499122
vt 0.531250 0.875000
vt 0.500000 0.562500
vt 0.500000 0.500000
vt 0.515625 1.000000
vt 0.500000 0.937500
vt 0.500000 0.499122
vt 0.500000 0.875000
vt 0.500000 0.812500
vt 0.500000 0.750000
vt 0.500000 0.687500
vt 0.500000 0.625000
vt 0.468750 0.750000
vt 0.468750 0.687500
vt 0.468750 0.625000
vt 0.468750 0.562500
vt 0.468750 0.500000
vt 0.484375 1.000000
vt 0.468750 0.937500
vt 0.468750 0.499122
vt 0.468750 0.875000
vt 0.468750 0.812500
vt 0.437500 0.500000
vt 0.437500 0.499122
vt 0.437500 0.937500
vt 0.437500 0.875000
vt 0.437500 0.812500
vt 0.437500 0.750000
vt 0.437500 0.687500
vt 0.437500 0.625000
vt 0.437500 0.562500
vt 0.453125 1.000000
vt 0.406250 0.687500
vt 0.406250 0.625000
vt 0.406250 0.562500
vt 0.406250 0.500000
vt 0.421875 1.000000
vt 0.406250 0.937500
vt 0.406250 0.499122
vt 0.406250 0.875000
vt 0.406250 0.812500
vt 0.406250 0.750000
vt 0.375000 0.937500
vt 0.375000 0.875000
vt 0.375000 0.812500
vt 0.375000 0.750000
vt 0.375000 0.687500
vt 0.375000 0.625000
vt 0.375000 0.562500
vt 0.375000 0.500000
vt 0.390625 1.000000
vt 0.375000 0.499122
vt 0.343750 0.687500
vt 0.343750 0.625000
vt 0.343750 0.562500
vt 0.343750 0.500000
vt 0.359375 1.000000
vt 0.343750 0.937500
vt 0.343750 0.499122
vt 0.343750 0.875000
vt 0.343750 0.812500
vt 0.343750 0.750000
vt 0.312500 0.875000
vt 0.312500 0.812500
vt 0.312500 0.750000
vt 0.312500 0.687500
vt 0.312500 0.625000
vt 0.312500 0.562500
vt 0.312500 0.500000
vt 0.328125 1.000000
vt 0.312500 0.937500
vt 0.312500 0.499122
vt 0.281250 0.625000
vt 0.281250 0.562500
vt 0.281250 0.500000
vt 0.296875 1.000000
vt 0.281250 0.937500
vt 0.281250 0.499122
vt 0.281250 0.875000
vt 0.281250 0.812500
vt 0.281250 0.750000
vt 0.281250 0.687500
vt 0.250000 0.875000
vt 0.250000 0.812500
vt 0.250000 0.750000
vt 0.250000 0.687500
vt 0.250000 0.625000
vt 0.250000 0.562500
vt 0.250000 0.500000
vt 0.265625 1.000000
vt 0.250000 0.937500
vt 0.250000 0.499122
vt 0.218750 0.625000
vt 0.218750 0.562500
vt 0.218750 0.500000
vt 0.234375 1.000000
vt 0.218750 0.937500
vt 0.218750 0.499122
vt 0.218750 0.875000
vt 0.218750 0.812500
vt 0.218750 0.750000
vt 0.218750 0.687500
vt 0.187500 0.812500
vt 0.187500 0.750000
vt 0.187500 0.687500
vt 0.187500 0.625000
vt 0.187500 0.562500
vt 0.187500 0.500000
vt 0.203125 1.000000
vt 0.187500 0.937500
vt 0.187500 0.499122
vt 0.187500 0.875000
vt 0.156250 0.562500
vt 0.156250 0.500000
vt 0.171875 1.000000
vt 0.156250 0.937500
vt 0.156250 0.499122
vt 0.156250 0.875000
vt 0.156250 0.812500
vt 0.156250 0.750000
vt 0.156250 0.687500
vt 0.156250 0.625000
vt 0.125000 0.750000
vt 0.125000 0.687500
vt 0.125000 0.625000
vt 0.125000 0.562500
vt 0.125000 0.500000
vt 0.140625 1.000000
vt 0.125000 0.937500
vt 0.125000 0.499122
vt 0.125000 0.875000
vt 0.125000 0.812500
vt 0.109375 1.000000
vt 0.093750 0.937500
vt 0.093750 0.500000
vt 0.093750 0.499122
vt 0.093750 0.875000
vt 0.093750 0.812500
vt 0.093750 0.750000
vt 0.093750 0.687500
vt 0.093750 0.625000
vt 0.093750 0.562500
vt 0.062500 0.750000
vt 0.062500 0.687500
vt 0.062500 0.625000
vt 0.062500 0.562500
vt 0.062500 0.500000
vt 0.078125 1.000000
vt 0.062500 0.937500
vt 0.062500 0.499122
vt 0.062500 0.875000
vt 0.062500 0.812500
vt 0.031250 0.500000
vt 0.031250 0.499122
vt 0.031250 0.937500
vt 0.031250 0.875000
vt 0.031250 0.812500
vt 0.031250 0.750000
vt 0.031250 0.687500
vt 0.031250 0.625000
vt 0.031250 0.562500
vt 0.046875 1.000000
vt 0.000000 0.687500
vt 0.000000 0.625000
vt 0.000000 0.562500
vt 0.000000 0.500000
vt 0.015625 1.000000
vt 0.000000 0.937500
vt 0.000000 0.499122
vt 0.000000 0.875000
vt 0.000000 0.812500
vt 0.000000 0.750000
vt 1.000000 0.875000
vt 1.000000 0.937500
vt 0.968750 0.937500
vt 0.968750 0.875000
vt 1.000000 0.812500
vt 0.968750 0.812500
vt 1.000000 0.750000
vt 0.968750 0.750000
vt 1.000000 0.687500
vt 0.968750 0.687500
vt 1.000000 0.625000
vt 0.968750 0.625000
vt 1.000000 0.562500
vt 0.968750 0.562500
vt 1.000000 0.500000
vt 0.968750 0.500000
vt 0.984375 1.000000
vt 1.000000 0.499122
vt 0.968750 0.499122
vt 0.937500 0.687500
vt 0.937500 0.625000
vt 0.937500 0.562500
vt 0.937500 0.500000
vt 0.953125 1.000000
vt 0.937500 0.937500
vt 0.937500 0.499122
vt 0.937500 0.875000
vt 0.937500 0.812500
vt 0.937500 0.750000
vt 0.906250 0.875000
vt 0.906250 0.812500
vt 0.906250 0.750000
vt 0.906250 0.687500
vt 0.906250 0.625000
vt 0.906250 0.562500
vt 0.906250 0.500000
vt 0.921875 1.000000
vt 0.906250 0.937500
vt 0.906250 0.499122
vt 0.875000 0.625000
vt 0.875000 0.562500
vt 0.875000 0.500000
vt 0.890625 1.000000
vt 0.875000 0.937500
vt 0.875000 0.499122
vt 0.875000 0.875000
vt 0.875000 0.812500
vt 0.875000 0.750000
vt 0.875000 0.687500
vt 0.843750 0.812500
vt 0.843750 0.750000
vt 0.843750 0.687500
vt 0.843750 0.625000
vt 0.843750 0.562500
vt 0.843750 0.500000
vt 0.859375 1.000000
vt 0.843750 0.937500
vt 0.843750 0.499122
vt 0.843750 0.875000
vt 0.812500 0.562500
vt 0.812500 0.500000
vt 0.828125 1.000000
vt 0.812500 0.937500
vt 0.812500 0.499122
vt 0.812500 0.875000
vt 0.812500 0.812500
vt 0.812500 0.750000
vt 0.812500 0.687500
vt 0.812500 0.625000
vt 0.781250 0.812500
vt 0.781250 0.750000
vt 0.781250 0.687500
vt 0.781250 0.625000
vt 0.781250 0.562500
vt 0.781250 0.500000
vt 0.796875 1.000000
vt 0.781250 0.937500
vt 0.781250 0.499122
vt 0.781250 0.875000
vt 0.765625 1.000000
vt 0.250000 0.490000
vt 0.250000 0.250000
vt 0.296822 0.485388
vt 0.341844 0.471731
vt 0.383337 0.449553
vt 0.419706 0.419706
vt 0.449553 0.383337
vt 0.471731 0.341844
vt 0.485388 0.296822
vt 0.490000 0.250000
vt 0.485388 0.203178
vt 0.471731 0.158156
vt 0.449553 0.116663
vt 0.419706 0.080294
vt 0.383337 0.050447
vt 0.341844 0.028269
vt 0.296822 0.014612
vt 0.250000 0.010000
vt 0.203178 0.014612
vt 0.158156 0.028269
vt 0.116663 0.050447
vt 0.080294 0.080294
vt 0.050447 0.116663
vt 0.028269 0.158156
vt 0.014612 0.203178
vt 0.010000 0.250000
vt 0.014612 0.296822
vt 0.028269 0.341844
vt 0.050447 0.383337
vt 0.080294 0.419706
vt 0.116663 0.449553
vt 0.158156 0.471731
vt 0.750000 0.490000
vt 0.796822 0.485388
vt 0.841844 0.471731
vt 0.883337 0.449553
vt 0.919706 0.419706
vt 0.949553 0.383337
vt 0.971731 0.341844
vt 0.985388 0.296822
vt 0.990000 0.250000
vt 0.985388 0.203178
vt 0.971731 0.158156
vt 0.949553 0.116663
vt 0.919706 0.080294
vt 0.883337 0.050447
vt 0.841844 0.028269
vt 0.796822 0.014612
vt 0.750000 0.010000
vt 0.703178 0.014612
vt 0.658156 0.028269
vt 0.616663 0.050447
vt 0.580294 0.080294
vt 0.550447 0.116663
vt 0.528269 0.158156
vt 0.514612 0.203178
vt 0.510000 0.250000
vt 0.514612 0.296822
vt 0.528269 0.341844
vt 0.550447 0.383337
vt 0.580294 0.419706
vt 0.616663 0.449553
vt 0.658156 0.471731
vt 0.703178 0.485388
vt 0.203178 0.485388
s 0
f 5/1/1 4/2/1 12/3/1 13/4/1
f 254/5/2 1/6/2 6/7/2
f 258/8/3 5/1/3 13/4/3 259/9/3
f 255/10/4 254/5/4 6/7/4 7/11/4
f 2/12/5 255/10/5 7/11/5 8/13/5
f 256/14/6 2/12/6 8/13/6 9/15/6
f 3/16/7 256/14/7 9/15/7 10/17/7
f 257/18/8 3/16/8 10/17/8 11/19/8
f 4/2/9 257/18/9 11/19/9 12/3/9
f 12/3/10 11/19/10 19/20/10 20/21/10
f 13/4/11 12/3/11 20/21/11 21/22/11
f 6/7/12 1/23/12 14/24/12
f 259/9/13 13/4/13 21/22/13 260/25/13
f 7/11/14 6/7/14 14/24/14 15/26/14
f 8/13/15 7/11/15 15/26/15 16/27/15
f 9/15/16 8/13/16 16/27/16 17/28/16
f 10/17/17 9/15/17 17/28/17 18/29/17
f 11/19/18 10/17/18 18/29/18 19/20/18
f 16/27/19 15/26/19 23/30/19 24/31/19
f 17/28/20 16/27/20 24/31/20 25/32/20
f 18/29/21 17/28/21 25/32/21 26/33/21
f 19/20/22 18/29/22 26/33/22 27/34/22
f 20/21/23 19/20/23 27/34/23 28/35/23
f 21/22/24 20/21/24 28/35/24 29/36/24
f 14/24/25 1/37/25 22/38/25
f 260/25/26 21/22/26 29/36/26 261/39/26
f 15/26/27 14/24/27 22/38/27 23/30/27
f 28/35/28 27/34/28 35/40/28 36/41/28
f 29/36/29 28/35/29 36/41/29 37/42/29
f 22/38/30 1/43/30 30/44/30
f 261/39/31 29/36/31 37/42/31 262/45/31
f 23/30/32 22/38/32 30/44/32 31/46/32
f 24/31/33 23/30/33 31/46/33 32/47/33
f 25/32/34 24/31/34 32/47/34 33/48/34
f 26/33/35 25/32/35 33/48/35 34/49/35
f 27/34/36 26/33/36 34/49/36 35/40/36
f 33/48/37 32/47/37 40/50/37 41/51/37
f 34/49/38 33/48/38 41/51/38 42/52/38
f 35/40/39 34/49/39 42/52/39 43/53/39
f 36/41/40 35/40/40 43/53/40 44/54/40
f 37/42/41 36/41/41 44/54/41 45/55/41
f 30/44/42 1/56/42 38/57/42
f 262/45/43 37/42/43 45/55/43 263/58/43
f 31/46/44 30/44/44 38/57/44 39/59/44
f 32/47/45 31/46/45 39/59/45 40/50/45
f 45/55/46 44/54/46 52/60/46 53/61/46
f 38/57/47 1/62/47 46/63/47
f 263/58/48 45/55/48 53/61/48 264/64/48
f 39/59/49 38/57/49 46/63/49 47/65/49
f 40/50/50 39/59/50 47/65/50 48/66/50
f 41/51/51 40/50/51 48/66/51 49/67/51
f 42/52/52 41/51/52 49/67/52 50/68/52
f 43/53/53 42/52/53 50/68/53 51/69/53
f 44/54/54 43/53/54 51/69/54 52/60/54
f 49/67/55 48/66/55 56/70/55 57/71/55
f 50/68/56 49/67/56 57/71/56 58/72/56
f 51/69/57 50/68/57 58/72/57 59/73/57
f 52/60/58 51/69/58 59/73/58 60/74/58
f 53/61/59 52/60/59 60/74/59 61/75/59
f 46/63/60 1/76/60 54/77/60
f 264/64/61 53/61/61 61/75/61 265/78/61
f 47/65/62 46/63/62 54/77/62 55/79/62
f 48/66/63 47/65/63 55/79/63 56/70/63
f 61/75/64 60/74/64 68/80/64 69/81/64
f 54/77/65 1/82/65 62/83/65
f 265/78/66 61/75/66 69/81/66 266/84/66
f 55/79/67 54/77/67 62/83/67 63/85/67
f 56/70/68 55/79/68 63/85/68 64/86/68
f 57/71/69 56/70/69 64/86/69 65/87/69
f 58/72/70 57/71/70 65/87/70 66/88/70
f 59/73/71 58/72/71 66/88/71 67/89/71
f 60/74/72 59/73/72 67/89/72 68/80/72
f 66/88/73 65/87/73 73/90/73 74/91/73
f 67/89/74 66/88/74 74/91/74 75/92/74
f 68/80/75 67/89/75 75/92/75 76/93/75
f 69/81/76 68/80/76 76/93/76 77/94/76
f 62/83/77 1/95/77 70/96/77
f 266/84/78 69/81/78 77/94/78 267/97/78
f 63/85/79 62/83/79 70/96/79 71/98/79
f 64/86/80 63/85/80 71/98/80 72/99/80
f 65/87/81 64/86/81 72/99/81 73/90/81
f 267/97/82 77/94/82 85/100/82 268/101/82
f 71/98/83 70/96/83 78/102/83 79/103/83
f 72/99/84 71/98/84 79/103/84 80/104/84
f 73/90/85 72/99/85 80/104/85 81/105/85
f 74/91/86 73/90/86 81/105/86 82/106/86
f 75/92/87 74/91/87 82/106/87 83/107/87
f 76/93/88 75/92/88 83/107/88 84/108/88
f 77/94/89 76/93/89 84/108/89 85/100/89
f 70/96/90 1/109/90 78/102/90
f 83/107/91 82/106/91 90/110/91 91/111/91
f 84/108/92 83/107/92 91/111/92 92/112/92
f 85/100/93 84/108/93 92/112/93 93/113/93
f 78/102/94 1/114/94 86/115/94
f 268/101/95 85/100/95 93/113/95 269/116/95
f 79/103/96 78/102/96 86/115/96 87/117/96
f 80/104/97 79/103/97 87/117/97 88/118/97
f 81/105/98 80/104/98 88/118/98 89/119/98
f 82/106/99 81/105/99 89/119/99 90/110/99
f 87/117/100 86/115/100 94/120/100 95/121/100
f 88/118/101 87/117/101 95/121/101 96/122/101
f 89/119/102 88/118/102 96/122/102 97/123/102
f 90/110/103 89/119/103 97/123/103 98/124/103
f 91/111/104 90/110/104 98/124/104 99/125/104
f 92/112/105 91/111/105 99/125/105 100/126/105
f 93/113/106 92/112/106 100/126/106 101/127/106
f 86/115/107 1/128/107 94/120/107
f 269/116/108 93/113/108 101/127/108 270/129/108
f 99/125/109 98/124/109 106/130/109 107/131/109
f 100/126/110 99/125/110 107/131/110 108/132/110
f 101/127/111 100/126/111 108/132/111 109/133/111
f 94/120/112 1/134/112 102/135/112
f 270/129/113 101/127/113 109/133/113 271/136/113
f 95/121/114 94/120/114 102/135/114 103/137/114
f 96/122/115 95/121/115 103/137/115 104/138/115
f 97/123/116 96/122/116 104/138/116 105/139/116
f 98/124/117 97/123/117 105/139/117 106/130/117
f 104/138/118 103/137/118 111/140/118 112/141/118
f 105/139/119 104/138/119 112/141/119 113/142/119
f 106/130/120 105/139/120 113/142/120 114/143/120
f 107/131/121 106/130/121 114/143/121 115/144/121
f 108/132/122 107/131/122 115/144/122 116/145/122
f 109/133/123 108/132/123 116/145/123 117/146/123
f 102/135/124 1/147/124 110/148/124
f 271/136/125 109/133/125 117/146/125 272/149/125
f 103/137/126 102/135/126 110/148/126 111/140/126
f 116/145/127 115/144/127 123/150/127 124/151/127
f 117/146/128 116/145/128 124/151/128 125/152/128
f 110/148/129 1/153/129 118/154/129
f 272/149/130 117/146/130 125/152/130 273/155/130
f 111/140/131 110/148/131 118/154/131 119/156/131
f 112/141/132 111/140/132 119/156/132 120/157/132
f 113/142/133 112/141/133 120/157/133 121/158/133
f 114/143/134 113/142/134 121/158/134 122/159/134
f 115/144/135 114/143/135 122/159/135 123/150/135
f 120/157/136 119/156/136 127/160/136 128/161/136
f 121/158/137 120/157/137 128/161/137 129/162/137
f 122/159/138 121/158/138 129/162/138 130/163/138
f 123/150/139 122/159/139 130/163/139 131/164/139
f 124/151/140 123/150/140 131/164/140 132/165/140
f 125/152/141 124/151/141 132/165/141 133/166/141
f 118/154/142 1/167/142 126/168/142
f 273/155/143 125/152/143 133/166/143 274/169/143
f 119/156/144 118/154/144 126/168/144 127/160/144
f 132/165/145 131/164/145 139/170/145 140/171/145
f 133/166/146 132/165/146 140/171/146 141/172/146
f 126/168/147 1/173/147 134/174/147
f 274/169/148 133/166/148 141/172/148 275/175/148
f 127/160/149 126/168/149 134/174/149 135/176/149
f 128/161/150 127/160/150 135/176/150 136/177/150
f 129/162/151 128/161/151 136/177/151 137/178/151
f 130/163/152 129/162/152 137/178/152 138/179/152
f 131/164/153 130/163/153 138/179/153 139/170/153
f 137/178/154 136/177/154 144/180/154 145/181/154
f 138/179/155 137/178/155 145/181/155 146/182/155
f 139/170/156 138/179/156 146/182/156 147/183/156
f 140/171/157 139/170/157 147/183/157 148/184/157
f 141/172/158 140/171/158 148/184/158 149/185/158
f 134/174/159 1/186/159 142/187/159
f 275/175/160 141/172/160 149/185/160 276/188/160
f 135/176/161 134/174/161 142/187/161 143/189/161
f 136/177/162 135/176/162 143/189/162 144/180/162
f 149/185/163 148/184/163 156/190/163 157/191/163
f 142/187/164 1/192/164 150/193/164
f 276/188/165 149/185/165 157/191/165 277/194/165
f 143/189/166 142/187/166 150/193/166 151/195/166
f 144/180/167 143/189/167 151/195/167 152/196/167
f 145/181/168 144/180/168 152/196/168 153/197/168
f 146/182/169 145/181/169 153/197/169 154/198/169
f 147/183/170 146/182/170 154/198/170 155/199/170
f 148/184/171 147/183/171 155/199/171 156/190/171
f 154/198/172 153/197/172 161/200/172 162/201/172
f 155/199/173 154/198/173 162/201/173 163/202/173
f 156/190/174 155/199/174 163/202/174 164/203/174
f 157/191/175 156/190/175 164/203/175 165/204/175
f 150/193/176 1/205/176 158/206/176
f 277/194/177 157/191/177 165/204/177 278/207/177
f 151/195/178 150/193/178 158/206/178 159/208/178
f 152/196/179 151/195/179 159/208/179 160/209/179
f 153/197/180 152/196/180 160/209/180 161/200/180
f 158/206/181 1/210/181 166/211/181
f 278/207/182 165/204/182 173/212/182 279/213/182
f 159/208/183 158/206/183 166/211/183 167/214/183
f 160/209/184 159/208/184 167/214/184 168/215/184
f 161/200/185 160/209/185 168/215/185 169/216/185
f 162/201/186 161/200/186 169/216/186 170/217/186
f 163/202/187 162/201/187 170/217/187 171/218/187
f 164/203/188 163/202/188 171/218/188 172/219/188
f 165/204/189 164/203/189 172/219/189 173/212/189
f 170/217/190 169/216/190 177/220/190 178/221/190
f 171/218/191 170/217/191 178/221/191 179/222/191
f 172/219/192 171/218/192 179/222/192 180/223/192
f 173/212/193 172/219/193 180/223/193 181/224/193
f 166/211/194 1/225/194 174/226/194
f 279/213/195 173/212/195 181/224/195 280/227/195
f 167/214/196 166/211/196 174/226/196 175/228/196
f 168/215/197 167/214/197 175/228/197 176/229/197
f 169/216/198 168/215/198 176/229/198 177/220/198
f 280/227/199 181/224/199 189/230/199 281/231/199
f 175/228/200 174/226/200 182/232/200 183/233/200
f 176/229/201 175/228/201 183/233/201 184/234/201
f 177/220/202 176/229/202 184/234/202 185/235/202
f 178/221/203 177/220/203 185/235/203 186/236/203
f 179/222/204 178/221/204 186/236/204 187/237/204
f 180/223/205 179/222/205 187/237/205 188/238/205
f 181/224/206 180/223/206 188/238/206 189/230/206
f 174/226/207 1/239/207 182/232/207
f 187/237/208 186/236/208 194/240/208 195/241/208
f 188/238/209 187/237/209 195/241/209 196/242/209
f 189/230/210 188/238/210 196/242/210 197/243/210
f 182/232/211 1/244/211 190/245/211
f 281/231/212 189/230/212 197/243/212 282/246/212
f 183/233/213 182/232/213 190/245/213 191/247/213
f 184/234/214 183/233/214 191/247/214 192/248/214
f 185/235/215 184/234/215 192/248/215 193/249/215
f 186/236/216 185/235/216 193/249/216 194/240/216
f 191/250/217 190/251/217 198/252/217 199/253/217
f 192/254/218 191/250/218 199/253/218 200/255/218
f 193/256/219 192/254/219 200/255/219 201/257/219
f 194/258/220 193/256/220 201/257/220 202/259/220
f 195/260/221 194/258/221 202/259/221 203/261/221
f 196/262/222 195/260/222 203/261/222 204/263/222
f 197/264/223 196/262/223 204/263/223 205/265/223
f 190/251/224 1/266/224 198/252/224
f 282/267/225 197/264/225 205/265/225 283/268/225
f 203/261/226 202/259/226 210/269/226 211/270/226
f 204/263/227 203/261/227 211/270/227 212/271/227
f 205/265/228 204/263/228 212/271/228 213/272/228
f 198/252/229 1/273/229 206/274/229
f 283/268/230 205/265/230 213/272/230 284/275/230
f 199/253/231 198/252/231 206/274/231 207/276/231
f 200/255/232 199/253/232 207/276/232 208/277/232
f 201/257/233 200/255/233 208/277/233 209/278/233
f 202/259/234 201/257/234 209/278/234 210/269/234
f 208/277/235 207/276/235 215/279/235 216/280/235
f 209/278/236 208/277/236 216/280/236 217/281/236
f 210/269/237 209/278/237 217/281/237 218/282/237
f 211/270/238 210/269/238 218/282/238 219/283/238
f 212/271/239 211/270/239 219/283/239 220/284/239
f 213/272/240 212/271/240 220/284/240 221/285/240
f 206/274/241 1/286/241 214/287/241
f 284/275/242 213/272/242 221/285/242 285/288/242
f 207/276/243 206/274/243 214/287/243 215/279/243
f 220/284/244 219/283/244 227/289/244 228/290/244
f 221/285/245 220/284/245 228/290/245 229/291/245
f 214/287/246 1/292/246 222/293/246
f 285/288/247 221/285/247 229/291/247 286/294/247
f 215/279/248 214/287/248 222/293/248 223/295/248
f 216/280/249 215/279/249 223/295/249 224/296/249
f 217/281/250 216/280/250 224/296/250 225/297/250
f 218/282/251 217/281/251 225/297/251 226/298/251
f 219/283/252 218/282/252 226/298/252 227/289/252
f 225/297/253 224/296/253 232/299/253 233/300/253
f 226/298/254 225/297/254 233/300/254 234/301/254
f 227/289/255 226/298/255 234/301/255 235/302/255
f 228/290/256 227/289/256 235/302/256 236/303/256
f 229/291/257 228/290/257 236/303/257 237/304/257
f 222/293/258 1/305/258 230/306/258
f 286/294/259 229/291/259 237/304/259 287/307/259
f 223/295/260 222/293/260 230/306/260 231/308/260
f 224/296/261 223/295/261 231/308/261 232/299/261
f 237/304/262 236/303/262 244/309/262 245/310/262
f 230/306/263 1/311/263 238/312/263
f 287/307/264 237/304/264 245/310/264 288/313/264
f 231/308/265 230/306/265 238/312/265 239/314/265
f 232/299/266 231/308/266 239/314/266 240/315/266
f 233/300/267 232/299/267 240/315/267 241/316/267
f 234/301/268 233/300/268 241/316/268 242/317/268
f 235/302/269 234/301/269 242/317/269 243/318/269
f 236/303/270 235/302/270 243/318/270 244/309/270
f 241/316/271 240/315/271 248/319/271 249/320/271
f 242/317/272 241/316/272 249/320/272 250/321/272
f 243/318/273 242/317/273 250/321/273 251/322/273
f 244/309/274 243/318/274 251/322/274 252/323/274
f 245/310/275 244/309/275 252/323/275 253/324/275
f 238/312/276 1/325/276 246/326/276
f 288/313/277 245/310/277 253/324/277 289/327/277
f 239/314/278 238/312/278 246/326/278 247/328/278
f 240/315/279 239/314/279 247/328/279 248/319/279
f 253/324/280 252/323/280 4/2/280 5/1/280
f 246/326/281 1/329/281 254/5/281
f 289/327/282 253/324/282 5/1/282 258/8/282
f 247/328/283 246/326/283 254/5/283 255/10/283
f 248/319/284 247/328/284 255/10/284 2/12/284
f 249/320/285 248/319/285 2/12/285 256/14/285
f 250/321/286 249/320/286 256/14/286 3/16/286
f 251/322/287 250/321/287 3/16/287 257/18/287
f 252/323/288 251/322/288 257/18/288 4/2/288
f 290/330/289 322/331/289 291/332/289
f 291/332/290 322/331/290 292/333/290
f 292/333/291 322/331/291 293/334/291
f 293/334/292 322/331/292 294/335/292
f 294/335/293 322/331/293 295/336/293
f 295/336/294 322/331/294 296/337/294
f 296/337/295 322/331/295 297/338/295
f 297/338/296 322/331/296 298/339/296
f 298/339/297 322/331/297 299/340/297
f 299/340/298 322/331/298 300/341/298
f 300/341/299 322/331/299 301/342/299
f 301/342/300 322/331/300 302/343/300
f 302/343/301 322/331/301 303/344/301
f 303/344/302 322/331/302 304/345/302
f 304/345/303 322/331/303 305/346/303
f 305/346/304 322/331/304 306/347/304
f 306/347/305 322/331/305 307/348/305
f 307/348/306 322/331/306 308/349/306
f 308/349/307 322/331/307 309/350/307
f 309/350/308 322/331/308 310/351/308
f 310/351/309 322/331/309 311/352/309
f 311/352/310 322/331/310 312/353/310
f 312/353/311 322/331/311 313/354/311
f 313/354/312 322/331/312 314/355/312
f 314/355/313 322/331/313 315/356/313
f 315/356/314 322/331/314 316/357/314
f 316/357/315 322/331/315 317/358/315
f 317/358/316 322/331/316 318/359/316
f 318/359/317 322/331/317 319/360/317
f 319/360/318 322/331/318 320/361/318
f 290/362/319 291/363/319 292/364/319 293/365/319 294/366/319 295/367/319 296/368/319 297/369/319 298/370/319 299/371/319 300/372/319 301/373/319 302/374/319 303/375/319 304/376/319 305/377/319 306/378/319 307/379/319 308/380/319 309/381/319 310/382/319 311/383/319 312/384/319 313/385/319 314/386/319 315/387/319 316/388/319 317/389/319 318/390/319 319/391/319 320/392/319 321/393/319
f 320/361/320 322/331/320 321/394/320
f 321/394/321 322/331/321 290/330/321
